<svg width="150" height="150" viewBox="0 0 150 150" fill="none" xmlns="http://www.w3.org/2000/svg">
<path d="M75.0364 1.14087C44.1941 1.14087 35.1739 1.17269 33.4206 1.31814C27.0912 1.84426 23.1527 2.84082 18.8619 4.97712C15.5552 6.61911 12.9473 8.52246 10.3736 11.1906C5.68619 16.0563 2.84537 22.0425 1.81699 29.1582C1.31701 32.6126 1.17156 33.3172 1.14201 50.9621C1.13065 56.8437 1.14201 64.5844 1.14201 74.967C1.14201 105.784 1.1761 114.795 1.32383 116.545C1.83517 122.704 2.80105 126.579 4.84645 130.818C8.75542 138.931 16.2211 145.022 25.0163 147.294C28.0617 148.078 31.4252 148.51 35.7432 148.715C37.5727 148.794 56.2199 148.851 74.8784 148.851C93.5369 148.851 112.195 148.828 113.98 148.738C118.979 148.502 121.883 148.113 125.093 147.283C133.945 144.999 141.274 138.999 145.263 130.772C147.268 126.636 148.285 122.613 148.746 116.776C148.846 115.503 148.888 95.2119 148.888 74.9477C148.888 54.6802 148.842 34.4262 148.742 33.1535C148.276 27.2219 147.259 23.2334 145.189 19.0176C143.49 15.5666 141.604 12.9894 138.865 10.3542C133.978 5.68619 128.001 2.84536 120.878 1.81812C117.427 1.31927 116.74 1.17155 99.0811 1.14087H75.0364Z" fill="url(#paint0_radial_156_10796)"/>
<path d="M75.0364 1.14087C44.1941 1.14087 35.1739 1.17269 33.4206 1.31814C27.0912 1.84426 23.1527 2.84082 18.8619 4.97712C15.5552 6.61911 12.9473 8.52246 10.3736 11.1906C5.68619 16.0563 2.84537 22.0425 1.81699 29.1582C1.31701 32.6126 1.17156 33.3172 1.14201 50.9621C1.13065 56.8437 1.14201 64.5844 1.14201 74.967C1.14201 105.784 1.1761 114.795 1.32383 116.545C1.83517 122.704 2.80105 126.579 4.84645 130.818C8.75542 138.931 16.2211 145.022 25.0163 147.294C28.0617 148.078 31.4252 148.51 35.7432 148.715C37.5727 148.794 56.2199 148.851 74.8784 148.851C93.5369 148.851 112.195 148.828 113.98 148.738C118.979 148.502 121.883 148.113 125.093 147.283C133.945 144.999 141.274 138.999 145.263 130.772C147.268 126.636 148.285 122.613 148.746 116.776C148.846 115.503 148.888 95.2119 148.888 74.9477C148.888 54.6802 148.842 34.4262 148.742 33.1535C148.276 27.2219 147.259 23.2334 145.189 19.0176C143.49 15.5666 141.604 12.9894 138.865 10.3542C133.978 5.68619 128.001 2.84536 120.878 1.81812C117.427 1.31927 116.74 1.17155 99.0811 1.14087H75.0364Z" fill="url(#paint1_radial_156_10796)"/>
<path d="M75.0023 20.4585C60.1891 20.4585 58.33 20.5233 52.512 20.788C46.7054 21.0539 42.7419 21.9732 39.2738 23.322C35.6864 24.7152 32.6433 26.5788 29.6116 29.6116C26.5776 32.6434 24.714 35.6864 23.3163 39.2727C21.9641 42.7419 21.0437 46.7066 20.7823 52.5109C20.5221 58.3289 20.4539 60.1891 20.4539 75.0023C20.4539 89.8155 20.5198 91.6688 20.7835 97.4868C21.0505 103.293 21.9698 107.257 23.3175 110.725C24.7117 114.312 26.5753 117.356 29.6082 120.387C32.6388 123.421 35.6819 125.289 39.267 126.683C42.7373 128.031 46.702 128.951 52.5075 129.217C58.3255 129.481 60.1834 129.546 74.9955 129.546C89.8098 129.546 91.6631 129.481 97.4811 129.217C103.288 128.951 107.256 128.031 110.726 126.683C114.312 125.289 117.351 123.421 120.382 120.387C123.416 117.356 125.279 114.312 126.677 110.726C128.018 107.257 128.938 103.292 129.211 97.488C129.472 91.67 129.54 89.8155 129.54 75.0023C129.54 60.1891 129.472 58.3301 129.211 52.5121C128.938 46.7054 128.018 42.7419 126.677 39.2738C125.279 35.6864 123.416 32.6434 120.382 29.6116C117.348 26.5776 114.314 24.714 110.723 23.322C107.246 21.9732 103.28 21.0539 97.4732 20.788C91.6552 20.5233 89.803 20.4585 74.9852 20.4585H75.0023ZM70.1092 30.2877C71.5615 30.2855 73.1819 30.2877 75.0023 30.2877C89.5655 30.2877 91.2915 30.34 97.0425 30.6014C102.361 30.8445 105.247 31.7332 107.169 32.4797C109.715 33.4683 111.53 34.6501 113.437 36.5591C115.347 38.4682 116.528 40.2863 117.519 42.8317C118.266 44.7521 119.155 47.6384 119.398 52.9564C119.659 58.7062 119.716 60.4334 119.716 74.9898C119.716 89.5462 119.659 91.2734 119.398 97.0232C119.154 102.341 118.266 105.228 117.519 107.148C116.531 109.693 115.347 111.506 113.437 113.414C111.528 115.323 109.716 116.504 107.169 117.493C105.249 118.243 102.361 119.129 97.0425 119.373C91.2927 119.634 89.5655 119.691 75.0023 119.691C60.4379 119.691 58.7119 119.634 52.962 119.373C47.644 119.127 44.7577 118.238 42.8339 117.492C40.2885 116.503 38.4704 115.322 36.5614 113.412C34.6524 111.503 33.4706 109.69 32.4797 107.143C31.7331 105.223 30.8434 102.337 30.6013 97.0187C30.34 91.2689 30.2877 89.5416 30.2877 74.9762C30.2877 60.4107 30.34 58.6926 30.6013 52.9427C30.8445 47.6247 31.7331 44.7384 32.4797 42.8158C33.4683 40.2704 34.6524 38.4523 36.5614 36.5432C38.4704 34.6342 40.2885 33.4524 42.8339 32.4615C44.7566 31.7116 47.644 30.8252 52.962 30.5809C57.9937 30.3537 59.9436 30.2855 70.1092 30.2741V30.2877ZM104.117 39.3443C100.504 39.3443 97.572 42.2726 97.572 45.8873C97.572 49.5008 100.504 52.4325 104.117 52.4325C107.731 52.4325 110.663 49.5008 110.663 45.8873C110.663 42.2737 107.731 39.342 104.117 39.342V39.3443ZM75.0023 46.9918C59.5334 46.9918 46.9918 59.5334 46.9918 75.0023C46.9918 90.4711 59.5334 103.007 75.0023 103.007C90.4711 103.007 103.008 90.4711 103.008 75.0023C103.008 59.5334 90.4711 46.9918 75.0023 46.9918ZM75.0023 56.821C85.0429 56.821 93.1835 64.9606 93.1835 75.0023C93.1835 85.0429 85.0429 93.1836 75.0023 93.1836C64.9605 93.1836 56.821 85.0429 56.821 75.0023C56.821 64.9606 64.9605 56.821 75.0023 56.821Z" fill="white"/>
<defs>
<radialGradient id="paint0_radial_156_10796" cx="0" cy="0" r="1" gradientUnits="userSpaceOnUse" gradientTransform="translate(40.3834 160.228) rotate(-90) scale(146.392 136.193)">
<stop stop-color="#FFDD55"/>
<stop offset="0.1" stop-color="#FFDD55"/>
<stop offset="0.5" stop-color="#FF543E"/>
<stop offset="1" stop-color="#C837AB"/>
</radialGradient>
<radialGradient id="paint1_radial_156_10796" cx="0" cy="0" r="1" gradientUnits="userSpaceOnUse" gradientTransform="translate(-23.612 11.7817) rotate(78.6776) scale(65.4384 269.808)">
<stop stop-color="#3771C8"/>
<stop offset="0.128" stop-color="#3771C8"/>
<stop offset="1" stop-color="#6600FF" stop-opacity="0"/>
</radialGradient>
</defs>
</svg>
